<?xml version="1.0" standalone="no"?>
<!DOCTYPE svg PUBLIC "-//W3C//DTD SVG 20010904//EN"
 "http://www.w3.org/TR/2001/REC-SVG-20010904/DTD/svg10.dtd">
<svg version="1.0" xmlns="http://www.w3.org/2000/svg"
 width="1024.000000pt" height="1024.000000pt" viewBox="0 0 1024.000000 1024.000000"
 preserveAspectRatio="xMidYMid meet">
<metadata>
Created by potrace 1.11, written by Peter Selinger 2001-2013
</metadata>
<g transform="translate(0.000000,1024.000000) scale(0.100000,-0.100000)"
fill="#000000" stroke="none">
<path d="M0 5120 l0 -5120 5120 0 5120 0 0 5120 0 5120 -5120 0 -5120 0 0
-5120z m4960 3040 l0 -320 -320 0 -320 0 0 -1280 0 -1280 -320 0 -320 0 0
1280 0 1280 -320 0 -320 0 0 320 0 320 960 0 960 0 0 -320z m1795 287 c204
-72 341 -209 411 -412 28 -79 28 -82 32 -377 l4 -298 -321 0 -321 0 0 240 0
240 -320 0 -320 0 0 -960 0 -960 320 0 320 0 0 240 0 240 321 0 321 0 -4 -297
c-4 -296 -4 -299 -32 -378 -70 -203 -207 -340 -411 -412 l-80 -28 -435 0 -435
0 -80 28 c-204 72 -340 208 -412 412 l-28 80 0 1075 0 1075 28 80 c82 232 269
394 500 434 29 5 234 9 457 8 l405 -2 80 -28z m-2636 -3497 c432 -55 776 -399
831 -831 6 -51 10 -352 10 -764 0 -733 -4 -796 -53 -940 -120 -349 -425 -599
-788 -645 -48 -6 -296 -10 -581 -10 l-498 0 0 1600 0 1600 498 0 c285 0 533
-4 581 -10z m3081 -310 l0 -320 -640 0 -640 0 0 -960 0 -960 320 0 320 0 0
640 0 640 320 0 321 0 -3 -697 -3 -698 -28 -80 c-72 -204 -208 -340 -412 -412
l-80 -28 -435 0 -435 0 -80 28 c-204 72 -340 208 -412 412 l-28 80 0 1075 0
1075 28 80 c69 194 201 332 383 401 36 13 89 28 117 33 29 5 352 9 720 10
l667 1 0 -320z"/>
<path d="M3680 3360 l0 -960 190 0 c169 0 195 2 247 22 77 29 152 104 181 181
22 57 22 66 22 757 0 691 0 700 -22 757 -29 77 -104 152 -181 181 -52 20 -78
22 -247 22 l-190 0 0 -960z"/>
</g>
</svg>
